<mxfile host="Electron" modified="2024-03-26T23:45:35.456Z" agent="Mozilla/5.0 (Windows NT 10.0; Win64; x64) AppleWebKit/537.36 (KHTML, like Gecko) draw.io/24.1.0 Chrome/120.0.6099.109 Electron/28.1.0 Safari/537.36" etag="R07mwWSoBTnlDo8OqdR4" version="24.1.0" type="device">
  <diagram name="Página-1" id="gV2L8PW4Eh0oA6nVVHoG">
    <mxGraphModel dx="1434" dy="836" grid="1" gridSize="10" guides="1" tooltips="1" connect="1" arrows="1" fold="1" page="1" pageScale="1" pageWidth="827" pageHeight="1169" math="0" shadow="0">
      <root>
        <mxCell id="0" />
        <mxCell id="1" parent="0" />
        <mxCell id="mA52srZ87zCa3Ffb4s3T-18" value="" style="endArrow=classic;html=1;rounded=0;exitX=0.25;exitY=0;exitDx=0;exitDy=0;entryX=0;entryY=1;entryDx=0;entryDy=0;" edge="1" parent="1" source="mA52srZ87zCa3Ffb4s3T-14" target="mA52srZ87zCa3Ffb4s3T-16">
          <mxGeometry width="50" height="50" relative="1" as="geometry">
            <mxPoint x="220" y="230" as="sourcePoint" />
            <mxPoint x="370" y="230" as="targetPoint" />
          </mxGeometry>
        </mxCell>
        <mxCell id="mA52srZ87zCa3Ffb4s3T-19" value="&lt;font style=&quot;font-size: 9px;&quot;&gt;2. Autenticación(user,pass)&lt;/font&gt;" style="edgeLabel;html=1;align=center;verticalAlign=middle;resizable=0;points=[];" vertex="1" connectable="0" parent="mA52srZ87zCa3Ffb4s3T-18">
          <mxGeometry x="-0.7086" y="3" relative="1" as="geometry">
            <mxPoint x="48" y="-8" as="offset" />
          </mxGeometry>
        </mxCell>
        <mxCell id="mA52srZ87zCa3Ffb4s3T-7" style="edgeStyle=orthogonalEdgeStyle;rounded=0;orthogonalLoop=1;jettySize=auto;html=1;endArrow=none;endFill=0;dashed=1;" edge="1" parent="1">
          <mxGeometry relative="1" as="geometry">
            <mxPoint x="69.5" y="703" as="targetPoint" />
            <mxPoint x="69.5" y="160" as="sourcePoint" />
          </mxGeometry>
        </mxCell>
        <mxCell id="mA52srZ87zCa3Ffb4s3T-1" value="Usuario" style="rounded=0;whiteSpace=wrap;html=1;" vertex="1" parent="1">
          <mxGeometry x="10" y="100" width="120" height="60" as="geometry" />
        </mxCell>
        <mxCell id="mA52srZ87zCa3Ffb4s3T-2" value="Interfaz" style="rounded=0;whiteSpace=wrap;html=1;" vertex="1" parent="1">
          <mxGeometry x="155" y="100" width="120" height="60" as="geometry" />
        </mxCell>
        <mxCell id="mA52srZ87zCa3Ffb4s3T-3" value="Gestor de usuarios" style="rounded=0;whiteSpace=wrap;html=1;" vertex="1" parent="1">
          <mxGeometry x="304" y="100" width="120" height="60" as="geometry" />
        </mxCell>
        <mxCell id="mA52srZ87zCa3Ffb4s3T-4" value="Gestor de servicios" style="rounded=0;whiteSpace=wrap;html=1;" vertex="1" parent="1">
          <mxGeometry x="435" y="100" width="120" height="60" as="geometry" />
        </mxCell>
        <mxCell id="mA52srZ87zCa3Ffb4s3T-5" value="Pasarela de pagos" style="rounded=0;whiteSpace=wrap;html=1;" vertex="1" parent="1">
          <mxGeometry x="572" y="100" width="120" height="60" as="geometry" />
        </mxCell>
        <mxCell id="mA52srZ87zCa3Ffb4s3T-6" value="Base de datos" style="rounded=0;whiteSpace=wrap;html=1;" vertex="1" parent="1">
          <mxGeometry x="712" y="100" width="89" height="60" as="geometry" />
        </mxCell>
        <mxCell id="mA52srZ87zCa3Ffb4s3T-8" style="edgeStyle=orthogonalEdgeStyle;rounded=0;orthogonalLoop=1;jettySize=auto;html=1;endArrow=none;endFill=0;dashed=1;" edge="1" parent="1" source="mA52srZ87zCa3Ffb4s3T-40">
          <mxGeometry relative="1" as="geometry">
            <mxPoint x="214.5" y="703" as="targetPoint" />
            <mxPoint x="214.5" y="160" as="sourcePoint" />
          </mxGeometry>
        </mxCell>
        <mxCell id="mA52srZ87zCa3Ffb4s3T-9" style="edgeStyle=orthogonalEdgeStyle;rounded=0;orthogonalLoop=1;jettySize=auto;html=1;endArrow=none;endFill=0;dashed=1;" edge="1" parent="1" source="mA52srZ87zCa3Ffb4s3T-16">
          <mxGeometry relative="1" as="geometry">
            <mxPoint x="363.5" y="703" as="targetPoint" />
            <mxPoint x="363.5" y="160" as="sourcePoint" />
          </mxGeometry>
        </mxCell>
        <mxCell id="mA52srZ87zCa3Ffb4s3T-10" style="edgeStyle=orthogonalEdgeStyle;rounded=0;orthogonalLoop=1;jettySize=auto;html=1;endArrow=none;endFill=0;dashed=1;" edge="1" parent="1" source="mA52srZ87zCa3Ffb4s3T-28">
          <mxGeometry relative="1" as="geometry">
            <mxPoint x="494.75" y="703" as="targetPoint" />
            <mxPoint x="494.75" y="160" as="sourcePoint" />
          </mxGeometry>
        </mxCell>
        <mxCell id="mA52srZ87zCa3Ffb4s3T-11" style="edgeStyle=orthogonalEdgeStyle;rounded=0;orthogonalLoop=1;jettySize=auto;html=1;endArrow=none;endFill=0;dashed=1;" edge="1" parent="1">
          <mxGeometry relative="1" as="geometry">
            <mxPoint x="631.25" y="703" as="targetPoint" />
            <mxPoint x="631.25" y="160" as="sourcePoint" />
          </mxGeometry>
        </mxCell>
        <mxCell id="mA52srZ87zCa3Ffb4s3T-13" value="" style="endArrow=classic;html=1;rounded=0;" edge="1" parent="1">
          <mxGeometry width="50" height="50" relative="1" as="geometry">
            <mxPoint x="70" y="200" as="sourcePoint" />
            <mxPoint x="220" y="200" as="targetPoint" />
          </mxGeometry>
        </mxCell>
        <mxCell id="mA52srZ87zCa3Ffb4s3T-15" value="&lt;font style=&quot;font-size: 9px;&quot;&gt;1. Autenticación (user,pass)&lt;/font&gt;" style="edgeLabel;html=1;align=center;verticalAlign=middle;resizable=0;points=[];" vertex="1" connectable="0" parent="mA52srZ87zCa3Ffb4s3T-13">
          <mxGeometry x="-0.7086" y="3" relative="1" as="geometry">
            <mxPoint x="43" y="-7" as="offset" />
          </mxGeometry>
        </mxCell>
        <mxCell id="mA52srZ87zCa3Ffb4s3T-17" value="" style="edgeStyle=orthogonalEdgeStyle;rounded=0;orthogonalLoop=1;jettySize=auto;html=1;endArrow=none;endFill=0;dashed=1;" edge="1" parent="1" target="mA52srZ87zCa3Ffb4s3T-16">
          <mxGeometry relative="1" as="geometry">
            <mxPoint x="363.5" y="703" as="targetPoint" />
            <mxPoint x="363.5" y="160" as="sourcePoint" />
          </mxGeometry>
        </mxCell>
        <mxCell id="mA52srZ87zCa3Ffb4s3T-16" value="" style="rounded=0;whiteSpace=wrap;html=1;rotation=90;" vertex="1" parent="1">
          <mxGeometry x="326.5" y="252.5" width="75" height="30" as="geometry" />
        </mxCell>
        <mxCell id="mA52srZ87zCa3Ffb4s3T-21" style="edgeStyle=orthogonalEdgeStyle;rounded=0;orthogonalLoop=1;jettySize=auto;html=1;exitX=0.5;exitY=1;exitDx=0;exitDy=0;entryX=0.621;entryY=-0.01;entryDx=0;entryDy=0;entryPerimeter=0;dashed=1;endArrow=open;endFill=0;" edge="1" parent="1" source="mA52srZ87zCa3Ffb4s3T-16" target="mA52srZ87zCa3Ffb4s3T-14">
          <mxGeometry relative="1" as="geometry" />
        </mxCell>
        <mxCell id="mA52srZ87zCa3Ffb4s3T-22" value="&lt;font style=&quot;font-size: 9px;&quot;&gt;3. Auth OK&lt;/font&gt;" style="edgeLabel;html=1;align=center;verticalAlign=middle;resizable=0;points=[];" vertex="1" connectable="0" parent="mA52srZ87zCa3Ffb4s3T-21">
          <mxGeometry x="0.2009" y="-1" relative="1" as="geometry">
            <mxPoint x="7" y="-11" as="offset" />
          </mxGeometry>
        </mxCell>
        <mxCell id="mA52srZ87zCa3Ffb4s3T-24" value="" style="edgeStyle=orthogonalEdgeStyle;rounded=0;orthogonalLoop=1;jettySize=auto;html=1;endArrow=none;endFill=0;dashed=1;" edge="1" parent="1" target="mA52srZ87zCa3Ffb4s3T-23">
          <mxGeometry relative="1" as="geometry">
            <mxPoint x="214.5" y="703" as="targetPoint" />
            <mxPoint x="214.5" y="160" as="sourcePoint" />
          </mxGeometry>
        </mxCell>
        <mxCell id="mA52srZ87zCa3Ffb4s3T-32" style="rounded=0;orthogonalLoop=1;jettySize=auto;html=1;exitX=0;exitY=0;exitDx=0;exitDy=0;entryX=0;entryY=1;entryDx=0;entryDy=0;" edge="1" parent="1">
          <mxGeometry relative="1" as="geometry">
            <mxPoint x="235" y="343" as="sourcePoint" />
            <mxPoint x="505" y="343.25" as="targetPoint" />
          </mxGeometry>
        </mxCell>
        <mxCell id="mA52srZ87zCa3Ffb4s3T-33" value="&lt;font style=&quot;font-size: 9px;&quot;&gt;5. SolicitarNuevoPedido (nProd)&lt;/font&gt;" style="edgeLabel;html=1;align=center;verticalAlign=middle;resizable=0;points=[];" vertex="1" connectable="0" parent="mA52srZ87zCa3Ffb4s3T-32">
          <mxGeometry x="0.2169" y="1" relative="1" as="geometry">
            <mxPoint x="-33" y="-9" as="offset" />
          </mxGeometry>
        </mxCell>
        <mxCell id="mA52srZ87zCa3Ffb4s3T-38" style="edgeStyle=orthogonalEdgeStyle;rounded=0;orthogonalLoop=1;jettySize=auto;html=1;exitX=0.75;exitY=1;exitDx=0;exitDy=0;dashed=1;endArrow=open;endFill=0;" edge="1" parent="1" source="mA52srZ87zCa3Ffb4s3T-23">
          <mxGeometry relative="1" as="geometry">
            <mxPoint x="70" y="400.28571428571433" as="targetPoint" />
          </mxGeometry>
        </mxCell>
        <mxCell id="mA52srZ87zCa3Ffb4s3T-39" value="&lt;font style=&quot;font-size: 9px;&quot;&gt;7. SolicitarPago&lt;/font&gt;" style="edgeLabel;html=1;align=center;verticalAlign=middle;resizable=0;points=[];" vertex="1" connectable="0" parent="mA52srZ87zCa3Ffb4s3T-38">
          <mxGeometry x="0.1902" y="-2" relative="1" as="geometry">
            <mxPoint x="5" y="-9" as="offset" />
          </mxGeometry>
        </mxCell>
        <mxCell id="mA52srZ87zCa3Ffb4s3T-23" value="" style="rounded=0;whiteSpace=wrap;html=1;rotation=90;" vertex="1" parent="1">
          <mxGeometry x="160" y="355" width="110" height="30" as="geometry" />
        </mxCell>
        <mxCell id="mA52srZ87zCa3Ffb4s3T-26" value="" style="endArrow=classic;html=1;rounded=0;" edge="1" parent="1">
          <mxGeometry width="50" height="50" relative="1" as="geometry">
            <mxPoint x="70" y="320" as="sourcePoint" />
            <mxPoint x="210" y="320" as="targetPoint" />
          </mxGeometry>
        </mxCell>
        <mxCell id="mA52srZ87zCa3Ffb4s3T-27" value="&lt;font style=&quot;font-size: 9px;&quot;&gt;&lt;font style=&quot;&quot;&gt;4. HacerNuevoPedido&amp;nbsp;&lt;/font&gt;(nProd)&lt;/font&gt;" style="edgeLabel;html=1;align=center;verticalAlign=middle;resizable=0;points=[];" vertex="1" connectable="0" parent="mA52srZ87zCa3Ffb4s3T-26">
          <mxGeometry x="-0.7086" y="3" relative="1" as="geometry">
            <mxPoint x="43" y="-7" as="offset" />
          </mxGeometry>
        </mxCell>
        <mxCell id="mA52srZ87zCa3Ffb4s3T-29" value="" style="edgeStyle=orthogonalEdgeStyle;rounded=0;orthogonalLoop=1;jettySize=auto;html=1;endArrow=none;endFill=0;dashed=1;" edge="1" parent="1" target="mA52srZ87zCa3Ffb4s3T-28">
          <mxGeometry relative="1" as="geometry">
            <mxPoint x="494.75" y="703" as="targetPoint" />
            <mxPoint x="494.75" y="160" as="sourcePoint" />
          </mxGeometry>
        </mxCell>
        <mxCell id="mA52srZ87zCa3Ffb4s3T-28" value="" style="rounded=0;whiteSpace=wrap;html=1;rotation=90;" vertex="1" parent="1">
          <mxGeometry x="471.25" y="342" width="47.5" height="30" as="geometry" />
        </mxCell>
        <mxCell id="mA52srZ87zCa3Ffb4s3T-36" style="edgeStyle=orthogonalEdgeStyle;rounded=0;orthogonalLoop=1;jettySize=auto;html=1;exitX=0.75;exitY=1;exitDx=0;exitDy=0;entryX=0.461;entryY=-0.01;entryDx=0;entryDy=0;entryPerimeter=0;dashed=1;endArrow=open;endFill=0;" edge="1" parent="1">
          <mxGeometry relative="1" as="geometry">
            <mxPoint x="504.86" y="376.815" as="sourcePoint" />
            <mxPoint x="235.15999999999997" y="379.04" as="targetPoint" />
            <Array as="points">
              <mxPoint x="270" y="377" />
              <mxPoint x="270" y="379" />
            </Array>
          </mxGeometry>
        </mxCell>
        <mxCell id="mA52srZ87zCa3Ffb4s3T-37" value="6. SolicitarPago" style="edgeLabel;html=1;align=center;verticalAlign=middle;resizable=0;points=[];" vertex="1" connectable="0" parent="mA52srZ87zCa3Ffb4s3T-36">
          <mxGeometry x="0.3569" y="-2" relative="1" as="geometry">
            <mxPoint x="41" y="-9" as="offset" />
          </mxGeometry>
        </mxCell>
        <mxCell id="mA52srZ87zCa3Ffb4s3T-41" value="" style="edgeStyle=orthogonalEdgeStyle;rounded=0;orthogonalLoop=1;jettySize=auto;html=1;endArrow=none;endFill=0;dashed=1;" edge="1" parent="1" source="mA52srZ87zCa3Ffb4s3T-23" target="mA52srZ87zCa3Ffb4s3T-40">
          <mxGeometry relative="1" as="geometry">
            <mxPoint x="214.5" y="703" as="targetPoint" />
            <mxPoint x="215" y="425" as="sourcePoint" />
          </mxGeometry>
        </mxCell>
        <mxCell id="mA52srZ87zCa3Ffb4s3T-40" value="" style="rounded=0;whiteSpace=wrap;html=1;rotation=90;" vertex="1" parent="1">
          <mxGeometry x="166.25" y="474.25" width="97.5" height="30" as="geometry" />
        </mxCell>
        <mxCell id="mA52srZ87zCa3Ffb4s3T-42" value="" style="endArrow=classic;html=1;rounded=0;" edge="1" parent="1">
          <mxGeometry width="50" height="50" relative="1" as="geometry">
            <mxPoint x="70" y="440" as="sourcePoint" />
            <mxPoint x="210" y="440" as="targetPoint" />
          </mxGeometry>
        </mxCell>
        <mxCell id="mA52srZ87zCa3Ffb4s3T-43" value="&lt;font size=&quot;1&quot;&gt;8. HacerPago(datos)&lt;/font&gt;" style="edgeLabel;html=1;align=center;verticalAlign=middle;resizable=0;points=[];" vertex="1" connectable="0" parent="mA52srZ87zCa3Ffb4s3T-42">
          <mxGeometry x="-0.7086" y="3" relative="1" as="geometry">
            <mxPoint x="43" y="-7" as="offset" />
          </mxGeometry>
        </mxCell>
        <mxCell id="mA52srZ87zCa3Ffb4s3T-48" style="edgeStyle=orthogonalEdgeStyle;rounded=0;orthogonalLoop=1;jettySize=auto;html=1;exitX=0.75;exitY=1;exitDx=0;exitDy=0;dashed=1;endArrow=open;endFill=0;" edge="1" parent="1" source="mA52srZ87zCa3Ffb4s3T-44">
          <mxGeometry relative="1" as="geometry">
            <mxPoint x="501" y="496.8571428571429" as="targetPoint" />
          </mxGeometry>
        </mxCell>
        <mxCell id="mA52srZ87zCa3Ffb4s3T-49" value="&lt;font style=&quot;font-size: 9px;&quot;&gt;10. PagoOK&lt;/font&gt;" style="edgeLabel;html=1;align=center;verticalAlign=middle;resizable=0;points=[];" vertex="1" connectable="0" parent="mA52srZ87zCa3Ffb4s3T-48">
          <mxGeometry x="0.1168" y="-2" relative="1" as="geometry">
            <mxPoint x="10" y="-10" as="offset" />
          </mxGeometry>
        </mxCell>
        <mxCell id="mA52srZ87zCa3Ffb4s3T-44" value="" style="rounded=0;whiteSpace=wrap;html=1;rotation=90;" vertex="1" parent="1">
          <mxGeometry x="608.25" y="470" width="47.5" height="30" as="geometry" />
        </mxCell>
        <mxCell id="mA52srZ87zCa3Ffb4s3T-45" style="edgeStyle=orthogonalEdgeStyle;rounded=0;orthogonalLoop=1;jettySize=auto;html=1;exitX=0.25;exitY=0;exitDx=0;exitDy=0;entryX=0.088;entryY=0.99;entryDx=0;entryDy=0;entryPerimeter=0;" edge="1" parent="1" source="mA52srZ87zCa3Ffb4s3T-40" target="mA52srZ87zCa3Ffb4s3T-44">
          <mxGeometry relative="1" as="geometry" />
        </mxCell>
        <mxCell id="mA52srZ87zCa3Ffb4s3T-46" value="&lt;font style=&quot;font-size: 9px;&quot;&gt;9. HacerPago (datos)&lt;/font&gt;" style="edgeLabel;html=1;align=center;verticalAlign=middle;resizable=0;points=[];" vertex="1" connectable="0" parent="mA52srZ87zCa3Ffb4s3T-45">
          <mxGeometry x="0.0351" relative="1" as="geometry">
            <mxPoint y="-9" as="offset" />
          </mxGeometry>
        </mxCell>
        <mxCell id="mA52srZ87zCa3Ffb4s3T-50" style="edgeStyle=orthogonalEdgeStyle;rounded=0;orthogonalLoop=1;jettySize=auto;html=1;dashed=1;endArrow=open;endFill=0;" edge="1" parent="1">
          <mxGeometry relative="1" as="geometry">
            <mxPoint x="235" y="516" as="targetPoint" />
            <mxPoint x="520" y="516" as="sourcePoint" />
            <Array as="points">
              <mxPoint x="373" y="515" />
              <mxPoint x="230" y="516" />
            </Array>
          </mxGeometry>
        </mxCell>
        <mxCell id="mA52srZ87zCa3Ffb4s3T-51" value="&lt;font style=&quot;font-size: 9px;&quot;&gt;11. Recibido&lt;/font&gt;" style="edgeLabel;html=1;align=center;verticalAlign=middle;resizable=0;points=[];" vertex="1" connectable="0" parent="mA52srZ87zCa3Ffb4s3T-50">
          <mxGeometry x="0.1168" y="-2" relative="1" as="geometry">
            <mxPoint x="4" y="-10" as="offset" />
          </mxGeometry>
        </mxCell>
        <mxCell id="mA52srZ87zCa3Ffb4s3T-52" style="edgeStyle=orthogonalEdgeStyle;rounded=0;orthogonalLoop=1;jettySize=auto;html=1;exitX=0.75;exitY=1;exitDx=0;exitDy=0;dashed=1;endArrow=open;endFill=0;" edge="1" parent="1">
          <mxGeometry relative="1" as="geometry">
            <mxPoint x="70" y="529.9971428571429" as="targetPoint" />
            <mxPoint x="205" y="530.14" as="sourcePoint" />
          </mxGeometry>
        </mxCell>
        <mxCell id="mA52srZ87zCa3Ffb4s3T-53" value="&lt;font style=&quot;font-size: 9px;&quot;&gt;12. Recibido&lt;/font&gt;" style="edgeLabel;html=1;align=center;verticalAlign=middle;resizable=0;points=[];" vertex="1" connectable="0" parent="mA52srZ87zCa3Ffb4s3T-52">
          <mxGeometry x="0.1168" y="-2" relative="1" as="geometry">
            <mxPoint x="5" y="-10" as="offset" />
          </mxGeometry>
        </mxCell>
        <mxCell id="mA52srZ87zCa3Ffb4s3T-55" style="rounded=0;orthogonalLoop=1;jettySize=auto;html=1;exitX=0;exitY=0;exitDx=0;exitDy=0;entryX=0.098;entryY=1.039;entryDx=0;entryDy=0;entryPerimeter=0;" edge="1" parent="1" target="mA52srZ87zCa3Ffb4s3T-57">
          <mxGeometry relative="1" as="geometry">
            <mxPoint x="501" y="584" as="sourcePoint" />
            <mxPoint x="750" y="584" as="targetPoint" />
          </mxGeometry>
        </mxCell>
        <mxCell id="mA52srZ87zCa3Ffb4s3T-56" value="&lt;font style=&quot;font-size: 9px;&quot;&gt;13. HacerPedido&lt;/font&gt;" style="edgeLabel;html=1;align=center;verticalAlign=middle;resizable=0;points=[];" vertex="1" connectable="0" parent="mA52srZ87zCa3Ffb4s3T-55">
          <mxGeometry x="0.2169" y="1" relative="1" as="geometry">
            <mxPoint x="-27" y="-9" as="offset" />
          </mxGeometry>
        </mxCell>
        <mxCell id="mA52srZ87zCa3Ffb4s3T-14" value="" style="rounded=0;whiteSpace=wrap;html=1;rotation=90;" vertex="1" parent="1">
          <mxGeometry x="165" y="240" width="100" height="30" as="geometry" />
        </mxCell>
        <mxCell id="mA52srZ87zCa3Ffb4s3T-59" style="edgeStyle=orthogonalEdgeStyle;rounded=0;orthogonalLoop=1;jettySize=auto;html=1;endArrow=none;endFill=0;dashed=1;" edge="1" parent="1">
          <mxGeometry relative="1" as="geometry">
            <mxPoint x="761" y="703" as="targetPoint" />
            <mxPoint x="761" y="160" as="sourcePoint" />
          </mxGeometry>
        </mxCell>
        <mxCell id="mA52srZ87zCa3Ffb4s3T-57" value="" style="rounded=0;whiteSpace=wrap;html=1;rotation=90;" vertex="1" parent="1">
          <mxGeometry x="741.25" y="583.75" width="39" height="30" as="geometry" />
        </mxCell>
      </root>
    </mxGraphModel>
  </diagram>
</mxfile>
